<svg width="48" height="48" viewBox="0 0 48 48" fill="none" xmlns="http://www.w3.org/2000/svg">
<g id="google-circle">
<path id="primary" d="M24 24H34C33.9959 26.3133 33.1898 28.5537 31.7192 30.3394C30.2485 32.1251 28.2043 33.3456 25.9347 33.7932C23.665 34.2408 21.3105 33.8876 19.272 32.7938C17.2336 31.7001 15.6374 29.9335 14.7554 27.7949C13.8734 25.6563 13.7601 23.2781 14.4348 21.0653C15.1096 18.8526 16.5306 16.9422 18.4559 15.6597C20.3811 14.3772 22.6915 13.8018 24.9934 14.0316C27.2953 14.2614 29.4463 15.2822 31.08 16.92" stroke="black" stroke-width="2" stroke-linecap="round" stroke-linejoin="round"/>
<path id="primary_2" d="M24 42C33.9411 42 42 33.9411 42 24C42 14.0589 33.9411 6 24 6C14.0589 6 6 14.0589 6 24C6 33.9411 14.0589 42 24 42Z" stroke="black" stroke-width="2" stroke-linecap="round" stroke-linejoin="round"/>
</g>
</svg>
