<svg width="318" height="233" viewBox="0 0 318 233" fill="none" xmlns="http://www.w3.org/2000/svg">
<path d="M285.431 217.056H264.418V217.213H285.431V217.056Z" fill="#D3E2F8"/>
<path d="M210.136 218.773H204.623V218.931H210.136V218.773Z" fill="#D3E2F8"/>
<path d="M263.784 211.196H251.609V211.353H263.784V211.196Z" fill="#D3E2F8"/>
<path d="M60.6833 212.257H33.2822V212.414H60.6833V212.257Z" fill="#D3E2F8"/>
<path d="M70.3519 212.257H66.3359V212.414H70.3519V212.257Z" fill="#D3E2F8"/>
<path d="M142.842 214.922H83.4087V215.079H142.842V214.922Z" fill="#D3E2F8"/>
<path d="M150.36 178.733H27.8643C26.9035 178.733 25.9821 178.353 25.3027 177.677C24.6234 177.001 24.2417 176.083 24.2417 175.127V3.73067C24.2501 2.77988 24.6354 1.87086 25.3139 1.20149C25.9924 0.53212 26.909 0.15658 27.8643 0.156616H150.36C151.321 0.156616 152.243 0.536493 152.922 1.21268C153.601 1.88886 153.983 2.80597 153.983 3.76224V175.127C153.983 176.083 153.601 177.001 152.922 177.677C152.243 178.353 151.321 178.733 150.36 178.733ZM27.8643 0.282908C26.9461 0.284577 26.066 0.648358 25.4167 1.29458C24.7675 1.94079 24.402 2.81678 24.4003 3.73067V175.127C24.402 176.041 24.7675 176.917 25.4167 177.563C26.066 178.209 26.9461 178.573 27.8643 178.575H150.36C151.279 178.573 152.159 178.209 152.808 177.563C153.457 176.917 153.823 176.041 153.824 175.127V3.73067C153.823 2.81678 153.457 1.94079 152.808 1.29458C152.159 0.648358 151.279 0.284577 150.36 0.282908H27.8643Z" fill="#D3E2F8"/>
<path d="M287.594 178.733H165.085C164.125 178.731 163.205 178.351 162.526 177.675C161.847 176.999 161.465 176.083 161.463 175.127V3.73067C161.473 2.78039 161.859 1.87233 162.537 1.20332C163.215 0.534296 164.131 0.158225 165.085 0.156616H287.594C288.547 0.159903 289.461 0.536911 290.136 1.20593C290.812 1.87494 291.196 2.78206 291.204 3.73067V175.127C291.204 176.081 290.824 176.996 290.148 177.672C289.471 178.348 288.553 178.729 287.594 178.733ZM165.085 0.282908C164.167 0.284577 163.287 0.648358 162.638 1.29458C161.989 1.94079 161.623 2.81678 161.621 3.73067V175.127C161.623 176.041 161.989 176.917 162.638 177.563C163.287 178.209 164.167 178.573 165.085 178.575H287.594C288.512 178.573 289.393 178.209 290.042 177.563C290.691 176.917 291.057 176.041 291.058 175.127V3.73067C291.057 2.81678 290.691 1.94079 290.042 1.29458C289.393 0.648358 288.512 0.284577 287.594 0.282908H165.085Z" fill="#D3E2F8"/>
<path d="M317.216 206.896H0V207.053H317.216V206.896Z" fill="#D3E2F8"/>
<path d="M261.925 150.292C254.724 155.817 252.643 167.916 252.282 176.441C252.282 177.217 251.013 177.224 251.063 176.441C251.444 167.411 253.512 155.23 261.31 149.244C261.944 148.77 262.534 149.818 261.944 150.292H261.925Z" fill="#F5F5F5"/>
<path d="M245.208 144.129C247.047 143.921 248.589 145.79 249.388 147.16C253.531 154.289 251.926 165.043 251.146 172.696C251.063 173.46 249.845 173.473 249.928 172.696C250.689 165.251 252.078 155.552 248.697 148.48C248.12 147.267 246.882 145.152 245.208 145.322C244.434 145.411 244.44 144.198 245.208 144.11V144.129Z" fill="#E6E6E6"/>
<path d="M240.748 153.898C248.45 152.003 249.414 169.002 249.63 172.671C249.68 173.448 248.462 173.448 248.412 172.671C248.107 167.708 247.86 160.604 244.256 156.625C243.526 155.817 242.264 154.775 241.084 155.066C240.947 155.064 240.814 155.017 240.706 154.934C240.597 154.85 240.519 154.734 240.483 154.602C240.446 154.471 240.454 154.331 240.504 154.204C240.554 154.077 240.644 153.969 240.76 153.898H240.748Z" fill="#E6E6E6"/>
<path d="M263.574 162.144C257.23 157.453 255.136 169.785 254.781 173.34C254.705 174.111 253.512 174.117 253.563 173.34C253.963 169.305 254.578 161.974 259.273 160.307C260.099 160.039 260.976 159.971 261.834 160.108C262.691 160.245 263.503 160.584 264.203 161.096C264.837 161.557 264.203 162.612 263.568 162.144H263.574Z" fill="#E6E6E6"/>
<path d="M238.248 164.373C238.731 163.865 239.326 163.475 239.987 163.236C240.648 162.997 241.356 162.915 242.054 162.997C245.937 163.628 247.016 169.482 247.606 172.507C247.752 173.271 246.578 173.593 246.432 172.829C245.924 170.214 243.476 160.831 239.123 165.251C239.004 165.314 238.867 165.336 238.733 165.316C238.599 165.296 238.476 165.234 238.38 165.138C238.285 165.043 238.222 164.92 238.202 164.787C238.181 164.654 238.204 164.518 238.267 164.399L238.248 164.373Z" fill="#F5F5F5"/>
<path d="M261.183 204.117H242.784C241.124 202.721 239.791 200.98 238.878 199.016C237.965 197.053 237.495 194.915 237.5 192.751C237.5 187.554 240.437 171.957 240.437 171.957H263.562C263.562 171.957 266.461 187.58 266.461 192.751C266.467 194.914 265.997 197.052 265.086 199.016C264.174 200.979 262.842 202.72 261.183 204.117Z" fill="#D3E2F8"/>
<path d="M264.114 168.124C258.556 168.124 253.119 165.883 251.971 163.123C250.822 160.364 254.394 158.116 259.945 158.116C261.737 158.118 263.521 158.345 265.256 158.791C266.794 158.319 268.398 158.091 270.007 158.116C275.559 158.116 280.996 160.357 282.144 163.123C283.292 165.889 279.727 168.124 274.169 168.124H264.114Z" fill="#F5F5F5"/>
<path d="M227.869 157.39C223.326 157.39 221.48 155.558 223.758 153.298C226.035 151.037 231.548 149.206 236.097 149.206C237.308 149.167 238.515 149.353 239.656 149.755C241.186 149.405 242.75 149.221 244.32 149.206C248.868 149.206 250.708 151.037 248.437 153.298C246.166 155.558 240.64 157.39 236.097 157.39H227.869Z" fill="#F0F0F0"/>
<path d="M269.633 153.317C263.924 153.317 256.945 151.012 254.103 148.164C251.26 145.316 253.563 143.011 259.28 143.011C261.258 143.031 263.228 143.266 265.154 143.712C266.589 143.199 268.109 142.961 269.633 143.011C275.343 143.011 282.322 145.322 285.158 148.164C287.994 151.006 285.697 153.317 279.981 153.317H269.633Z" fill="#D3E2F8"/>
<path d="M237.874 146.655C235.019 146.655 233.179 145.499 233.769 144.078C234.359 142.658 237.163 141.502 240.018 141.502C240.845 141.489 241.67 141.606 242.461 141.849C243.354 141.62 244.272 141.503 245.195 141.502C248.05 141.502 249.89 142.651 249.3 144.078C248.71 145.506 245.912 146.655 243.051 146.655H237.874Z" fill="#F0F0F0"/>
<path d="M234.581 167.272C231.72 167.272 228.922 166.116 228.332 164.696C227.742 163.275 229.601 162.119 232.437 162.119C233.357 162.123 234.273 162.24 235.165 162.466C235.958 162.227 236.784 162.109 237.614 162.119C240.469 162.119 243.267 163.275 243.857 164.696C244.447 166.116 242.588 167.272 239.752 167.272H234.581Z" fill="#D3E2F8"/>
<path d="M239.885 174.868C240.196 173.119 240.411 171.983 240.411 171.983H263.536C263.536 171.983 263.746 173.119 264.057 174.868H239.885Z" fill="#F5F5F5"/>
<path d="M238.876 150.772C238.876 150.772 232.532 152.875 230.527 156.348C230.527 156.348 230.844 151.296 238.876 150.772Z" fill="#FAFAFA"/>
<path d="M241.864 142.512C240.843 143.1 239.941 143.874 239.206 144.792C239.382 144.198 239.726 143.667 240.198 143.262C240.669 142.858 241.248 142.598 241.864 142.512Z" fill="#FAFAFA"/>
<path d="M266.461 144.792C266.461 144.792 273.338 147.318 277.57 152.035C277.576 152.035 274.296 145.449 266.461 144.792Z" fill="#FAFAFA"/>
<path d="M266.461 160.029C269.319 161.21 271.806 163.133 273.662 165.599C273.662 165.599 272.393 160.869 266.461 160.029Z" fill="#E6E6E6"/>
<path d="M235.279 163.502C235.788 163.768 236.221 164.16 236.535 164.64C236.849 165.119 237.035 165.671 237.074 166.243C236.234 165.51 235.613 164.562 235.279 163.502Z" fill="#FAFAFA"/>
<path d="M279.499 74.094V71.1766H195.563V74.094H279.499Z" fill="#F5F5F5"/>
<path d="M217.934 74.1003H203.894V80.6485H210.917C210.916 80.2544 210.993 79.864 211.144 79.4997C211.296 79.1354 211.517 78.8044 211.797 78.5257C212.077 78.247 212.41 78.0261 212.776 77.8757C213.142 77.7253 213.534 77.6482 213.93 77.6491H217.934V74.1003Z" fill="#E0E0E0"/>
<path d="M211.589 74.1003H201.356V80.6485H204.573C204.572 80.2544 204.649 79.864 204.8 79.4997C204.951 79.1354 205.173 78.8044 205.453 78.5257C205.733 78.247 206.066 78.0261 206.432 77.8757C206.798 77.7253 207.19 77.6482 207.586 77.6491H211.589V74.1003Z" fill="#F5F5F5"/>
<path d="M257.129 74.1003H271.175V80.6485H264.152C264.152 79.853 263.835 79.0901 263.269 78.5276C262.704 77.9651 261.938 77.6491 261.138 77.6491H257.129V74.1003Z" fill="#D3E2F8"/>
<path d="M263.473 74.1003H273.713V80.6485H270.496C270.496 79.853 270.179 79.0901 269.614 78.5276C269.048 77.9651 268.282 77.6491 267.483 77.6491H263.473V74.1003Z" fill="#F5F5F5"/>
<path d="M247.574 71.4608H254.883C255.541 70.9082 256.071 70.2188 256.434 69.4411C256.796 68.6633 256.984 67.816 256.983 66.9585C256.983 64.9 255.815 52.6434 255.815 52.6434H246.641C246.641 52.6434 245.474 64.9 245.474 66.9585C245.473 67.816 245.661 68.6633 246.023 69.4411C246.386 70.2188 246.915 70.9082 247.574 71.4608Z" fill="#D3E2F8"/>
<path d="M252.225 63.3781C252.193 63.9591 252.174 64.4263 252.174 64.7421C252.173 66.0216 252.453 67.2858 252.994 68.4463C253.536 69.6069 254.325 70.6357 255.308 71.4608H266.22C267.203 70.6357 267.992 69.6069 268.534 68.4463C269.075 67.2858 269.355 66.0216 269.354 64.7421C269.354 64.4263 269.354 63.9591 269.303 63.3781H252.225Z" fill="#F5F5F5"/>
<path d="M247.562 63.4602C247.558 63.0887 247.41 62.7329 247.149 62.4679C246.887 62.2029 246.533 62.0492 246.159 62.0394H237.582C237.205 62.0394 236.843 62.1871 236.575 62.4507C236.306 62.7142 236.153 63.0724 236.148 63.4476V63.5486C235.84 63.4517 235.52 63.4007 235.197 63.3971C233.794 63.3971 232.855 64.4832 232.855 66.106C232.855 67.7289 234.492 68.815 235.958 68.815C236.107 68.8131 236.255 68.7983 236.402 68.7708C236.74 69.813 237.364 70.7404 238.204 71.4481H245.525C246.184 70.8955 246.713 70.2062 247.076 69.4284C247.439 68.6507 247.626 67.8033 247.625 66.9459C247.606 66.3965 247.587 65.0831 247.562 63.4602ZM235.951 67.9183C234.962 67.9183 233.763 67.1164 233.763 66.1186C233.763 65.6956 233.864 64.3127 235.19 64.3127C235.515 64.3198 235.834 64.3928 236.129 64.5274C236.129 65.6451 236.097 66.5291 236.097 66.9585C236.101 67.2761 236.131 67.5929 236.186 67.9057L235.951 67.9183Z" fill="#E0E0E0"/>
<path d="M138.782 47.6548H96.8145V139.197H138.782V47.6548Z" fill="#D3E2F8"/>
<path d="M96.8143 47.6548H54.8467V139.197H96.8143V47.6548Z" fill="#D3E2F8"/>
<path d="M119.863 197.576H133.903V204.117H126.886C126.886 203.322 126.569 202.559 126.004 201.996C125.439 201.434 124.672 201.118 123.873 201.118H119.863V197.576Z" fill="#E0E0E0"/>
<path d="M73.7719 197.576H59.7256V204.117H66.7487C66.7487 203.322 67.0662 202.559 67.6314 201.996C68.1965 201.434 68.963 201.118 69.7623 201.118H73.7719V197.576Z" fill="#E0E0E0"/>
<path d="M138.782 139.191H54.8467V168.03H138.782V139.191Z" fill="#D3E2F8"/>
<path d="M138.782 168.03H54.8467V196.868H138.782V168.03Z" fill="#D3E2F8"/>
<path d="M138.782 143.624V140.706H54.8465V143.624H138.782Z" fill="#E0E0E0"/>
<path d="M96.8208 51.8351V48.9178H54.8532V51.8351H96.8208Z" fill="#E0E0E0"/>
<path d="M138.788 51.8351V48.9178H96.8204V51.8351H138.788Z" fill="#E0E0E0"/>
<path d="M138.782 172.235V169.318H54.8465V172.235H138.782Z" fill="#E0E0E0"/>
<path d="M138.782 46.1962H53.3809V198.125H140.247V46.1962H138.782ZM137.316 140.972V166.628H56.3119V140.972H137.316ZM98.2796 138.054V49.1135H137.316V138.067L98.2796 138.054ZM95.3485 49.1009V138.067H56.3119V49.1135L95.3485 49.1009ZM56.3119 195.208V169.558H137.316V195.208H56.3119Z" fill="#F5F5F5"/>
<path d="M67.4272 197.576H53.3809V204.117H60.404C60.404 203.322 60.7215 202.559 61.2867 201.996C61.8518 201.434 62.6183 201.118 63.4176 201.118H67.4272V197.576Z" fill="#F5F5F5"/>
<path d="M126.208 197.576H140.247V204.117H133.231C133.231 203.322 132.913 202.559 132.348 201.996C131.783 201.434 131.016 201.118 130.217 201.118H126.208V197.576Z" fill="#F5F5F5"/>
<path d="M100.411 156.127C100.411 156.835 100.2 157.527 99.805 158.116C99.4097 158.705 98.8479 159.163 98.1906 159.434C97.5333 159.705 96.81 159.776 96.1122 159.638C95.4144 159.5 94.7735 159.159 94.2704 158.658C93.7673 158.158 93.4247 157.52 93.2859 156.825C93.1471 156.131 93.2184 155.411 93.4906 154.757C93.7629 154.102 94.224 153.543 94.8155 153.15C95.4071 152.756 96.1026 152.546 96.814 152.546C97.7681 152.546 98.683 152.923 99.3577 153.595C100.032 154.266 100.411 155.177 100.411 156.127Z" fill="#E0E0E0"/>
<path d="M100.411 153.601C100.411 154.309 100.2 155.001 99.805 155.59C99.4097 156.179 98.8479 156.638 98.1906 156.909C97.5333 157.18 96.81 157.25 96.1122 157.112C95.4144 156.974 94.7735 156.633 94.2704 156.132C93.7673 155.632 93.4247 154.994 93.2859 154.299C93.1471 153.605 93.2184 152.885 93.4906 152.231C93.7629 151.576 94.224 151.017 94.8155 150.624C95.4071 150.23 96.1026 150.02 96.814 150.02C97.7681 150.02 98.683 150.398 99.3577 151.069C100.032 151.74 100.411 152.651 100.411 153.601Z" fill="#F5F5F5"/>
<path d="M100.411 184.972C100.41 185.679 100.198 186.371 99.8019 186.959C99.4059 187.547 98.8436 188.005 98.1862 188.275C97.5288 188.545 96.8057 188.615 96.1084 188.476C95.411 188.337 94.7706 187.996 94.2682 187.495C93.7657 186.994 93.4237 186.356 93.2855 185.661C93.1472 184.967 93.2188 184.248 93.4912 183.594C93.7637 182.94 94.2247 182.381 94.8162 181.988C95.4076 181.595 96.1028 181.385 96.814 181.385C97.287 181.385 97.7552 181.478 98.1921 181.658C98.6289 181.838 99.0258 182.103 99.3599 182.436C99.694 182.769 99.9588 183.164 100.139 183.599C100.32 184.035 100.412 184.501 100.411 184.972Z" fill="#E0E0E0"/>
<path d="M100.411 182.446C100.41 183.154 100.198 183.845 99.8019 184.433C99.4059 185.021 98.8436 185.479 98.1862 185.749C97.5288 186.019 96.8057 186.089 96.1084 185.95C95.411 185.811 94.7706 185.47 94.2682 184.969C93.7657 184.468 93.4237 183.83 93.2855 183.136C93.1472 182.441 93.2188 181.722 93.4912 181.068C93.7637 180.414 94.2247 179.855 94.8162 179.462C95.4076 179.069 96.1028 178.859 96.814 178.859C97.287 178.859 97.7552 178.952 98.1921 179.132C98.6289 179.313 99.0258 179.577 99.3599 179.91C99.694 180.243 99.9588 180.639 100.139 181.074C100.32 181.509 100.412 181.975 100.411 182.446Z" fill="#F5F5F5"/>
<path d="M92.0623 91.6358C92.0769 91.3918 92.0412 91.1474 91.9574 90.9176C91.8736 90.6878 91.7434 90.4775 91.575 90.2996C91.4066 90.1217 91.2033 89.9799 90.9778 89.883C90.7523 89.7861 90.5093 89.7361 90.2637 89.7361C90.0181 89.7361 89.7751 89.7861 89.5496 89.883C89.3241 89.9799 89.1208 90.1217 88.9524 90.2996C88.784 90.4775 88.6538 90.6878 88.57 90.9176C88.4862 91.1474 88.4505 91.3918 88.4651 91.6358V97.742C88.4923 98.1984 88.6937 98.6273 89.028 98.9408C89.3623 99.2544 89.8043 99.429 90.2637 99.429C90.7231 99.429 91.1651 99.2544 91.4994 98.9408C91.8337 98.6273 92.0351 98.1984 92.0623 97.742V91.6358Z" fill="#E0E0E0"/>
<path d="M92.0623 89.11C92.0769 88.866 92.0412 88.6216 91.9574 88.3918C91.8736 88.162 91.7434 87.9517 91.575 87.7738C91.4066 87.5958 91.2033 87.4541 90.9778 87.3572C90.7523 87.2603 90.5093 87.2103 90.2637 87.2103C90.0181 87.2103 89.7751 87.2603 89.5496 87.3572C89.3241 87.4541 89.1208 87.5958 88.9524 87.7738C88.784 87.9517 88.6538 88.162 88.57 88.3918C88.4862 88.6216 88.4505 88.866 88.4651 89.11V95.2162C88.4923 95.6726 88.6937 96.1014 89.028 96.415C89.3623 96.7286 89.8043 96.9032 90.2637 96.9032C90.7231 96.9032 91.1651 96.7286 91.4994 96.415C91.8337 96.1014 92.0351 95.6726 92.0623 95.2162V89.11Z" fill="#F5F5F5"/>
<path d="M105.278 91.6358C105.292 91.3918 105.256 91.1474 105.173 90.9176C105.089 90.6878 104.959 90.4775 104.79 90.2996C104.622 90.1217 104.419 89.9799 104.193 89.883C103.968 89.7861 103.725 89.7361 103.479 89.7361C103.233 89.7361 102.99 89.7861 102.765 89.883C102.539 89.9799 102.336 90.1217 102.168 90.2996C101.999 90.4775 101.869 90.6878 101.785 90.9176C101.702 91.1474 101.666 91.3918 101.68 91.6358V97.742C101.708 98.1984 101.909 98.6273 102.243 98.9408C102.578 99.2544 103.02 99.429 103.479 99.429C103.938 99.429 104.38 99.2544 104.715 98.9408C105.049 98.6273 105.25 98.1984 105.278 97.742V91.6358Z" fill="#E0E0E0"/>
<path d="M105.278 89.11C105.292 88.866 105.256 88.6216 105.173 88.3918C105.089 88.162 104.959 87.9517 104.79 87.7738C104.622 87.5958 104.419 87.4541 104.193 87.3572C103.968 87.2603 103.725 87.2103 103.479 87.2103C103.233 87.2103 102.99 87.2603 102.765 87.3572C102.539 87.4541 102.336 87.5958 102.168 87.7738C101.999 87.9517 101.869 88.162 101.785 88.3918C101.702 88.6216 101.666 88.866 101.68 89.11V95.2162C101.708 95.6726 101.909 96.1014 102.243 96.415C102.578 96.7286 103.02 96.9032 103.479 96.9032C103.938 96.9032 104.38 96.7286 104.715 96.415C105.049 96.1014 105.25 95.6726 105.278 95.2162V89.11Z" fill="#F5F5F5"/>
<path d="M279.499 101.36V98.443H195.563V101.36H279.499Z" fill="#F5F5F5"/>
<path d="M217.934 101.367H203.894V107.915H210.917C210.916 107.521 210.993 107.13 211.144 106.766C211.296 106.402 211.517 106.071 211.797 105.792C212.077 105.513 212.41 105.292 212.776 105.142C213.142 104.992 213.534 104.915 213.93 104.915H217.934V101.367Z" fill="#E0E0E0"/>
<path d="M211.589 101.367H201.356V107.915H204.573C204.572 107.521 204.649 107.13 204.8 106.766C204.951 106.402 205.173 106.071 205.453 105.792C205.733 105.513 206.066 105.292 206.432 105.142C206.798 104.992 207.19 104.915 207.586 104.915H211.589V101.367Z" fill="#F5F5F5"/>
<path d="M257.129 101.367H271.175V107.915H264.152C264.152 107.119 263.835 106.356 263.269 105.794C262.704 105.231 261.938 104.915 261.138 104.915H257.129V101.367Z" fill="#D3E2F8"/>
<path d="M263.473 101.367H273.713V107.915H270.496C270.496 107.119 270.179 106.356 269.614 105.794C269.048 105.231 268.282 104.915 267.483 104.915H263.473V101.367Z" fill="#F5F5F5"/>
<path d="M240.608 89.4889C240.67 87.1993 241.627 85.0241 243.276 83.4263C244.924 81.8286 247.135 80.9346 249.436 80.9346C251.737 80.9346 253.948 81.8286 255.596 83.4263C257.245 85.0241 258.202 87.1993 258.264 89.4889V98.5756H240.608V89.4889Z" fill="#F0F0F0"/>
<path d="M256.139 91.056C257.014 87.3665 254.718 83.6697 251.011 82.7989C247.305 81.9281 243.59 84.2131 242.715 87.9026C241.841 91.5921 244.136 95.2889 247.843 96.1597C251.55 97.0305 255.264 94.7455 256.139 91.056Z" fill="#FAFAFA"/>
<path d="M249.439 83.7048C251.171 83.7057 252.84 84.356 254.112 85.5262C255.384 86.6964 256.167 88.3006 256.304 90.0193C256.304 89.8425 256.336 89.6657 256.336 89.4826C256.336 87.6622 255.609 85.9163 254.316 84.6291C253.022 83.3418 251.268 82.6187 249.439 82.6187C247.61 82.6187 245.856 83.3418 244.563 84.6291C243.27 85.9163 242.543 87.6622 242.543 89.4826C242.543 89.6657 242.543 89.8425 242.543 90.0193C242.681 88.2952 243.468 86.6865 244.746 85.5155C246.025 84.3445 247.702 83.6977 249.439 83.7048Z" fill="#E0E0E0"/>
<path d="M253.773 89.4826H250.15V85.877C250.15 85.6844 250.073 85.4997 249.936 85.3635C249.8 85.2273 249.614 85.1508 249.421 85.1508C249.227 85.1508 249.041 85.2273 248.905 85.3635C248.768 85.4997 248.691 85.6844 248.691 85.877V90.2088C248.69 90.3044 248.708 90.3992 248.745 90.4877C248.781 90.5762 248.835 90.6566 248.903 90.7242C248.971 90.7918 249.051 90.8452 249.14 90.8814C249.229 90.9176 249.325 90.9358 249.421 90.935H253.773C253.966 90.935 254.152 90.8585 254.289 90.7223C254.425 90.5861 254.502 90.4014 254.502 90.2088C254.502 90.0162 254.425 89.8315 254.289 89.6953C254.152 89.5591 253.966 89.4826 253.773 89.4826Z" fill="#E0E0E0"/>
<path d="M253.773 90.2151C253.966 90.2151 254.152 90.1386 254.289 90.0024C254.425 89.8662 254.502 89.6815 254.502 89.4889C254.502 89.2963 254.425 89.1116 254.289 88.9754C254.152 88.8393 253.966 88.7628 253.773 88.7628H249.421C249.227 88.7628 249.041 88.8393 248.905 88.9754C248.768 89.1116 248.691 89.2963 248.691 89.4889C248.691 89.6815 248.768 89.8662 248.905 90.0024C249.041 90.1386 249.227 90.2151 249.421 90.2151H253.773Z" fill="#F5F5F5"/>
<path d="M250.169 85.1508C250.169 84.9582 250.092 84.7735 249.955 84.6373C249.819 84.5011 249.633 84.4246 249.44 84.4246C249.246 84.4246 249.06 84.5011 248.924 84.6373C248.787 84.7735 248.71 84.9582 248.71 85.1508V89.4889C248.71 89.6815 248.787 89.8662 248.924 90.0024C249.06 90.1386 249.246 90.2151 249.44 90.2151C249.633 90.2151 249.819 90.1386 249.955 90.0024C250.092 89.8662 250.169 89.6815 250.169 89.4889V85.1508Z" fill="#D3E2F8"/>
<path d="M155.55 232.981C223.486 232.981 278.56 229.781 278.56 225.833C278.56 221.885 223.486 218.685 155.55 218.685C87.6134 218.685 32.54 221.885 32.54 225.833C32.54 229.781 87.6134 232.981 155.55 232.981Z" fill="#F5F5F5"/>
<path d="M209.483 207.527H143.064C141.786 207.54 140.519 207.291 139.343 206.794C138.166 206.297 137.105 205.564 136.226 204.641C135.347 203.718 134.669 202.624 134.234 201.427C133.8 200.231 133.618 198.959 133.7 197.689L142.328 33.8006C142.493 31.1559 143.658 28.6713 145.588 26.8463C147.518 25.0212 150.071 23.9909 152.733 23.9625H219.145C220.424 23.9486 221.691 24.1975 222.869 24.6938C224.046 25.19 225.108 25.9228 225.987 26.8464C226.867 27.7699 227.546 28.8643 227.981 30.0609C228.416 31.2575 228.598 32.5307 228.516 33.8006L219.887 197.689C219.721 200.333 218.556 202.817 216.626 204.642C214.696 206.467 212.144 207.497 209.483 207.527Z" fill="#8B89FB"/>
<path d="M218.803 30.5612H152.384C150.696 30.5817 149.079 31.2359 147.856 32.3928C146.632 33.5496 145.893 35.1238 145.786 36.8L137.475 194.664C137.422 195.469 137.537 196.277 137.813 197.035C138.088 197.794 138.518 198.488 139.076 199.074C139.633 199.659 140.306 200.124 141.053 200.439C141.799 200.754 142.603 200.912 143.413 200.903H209.832C211.519 200.883 213.136 200.229 214.36 199.072C215.583 197.915 216.323 196.341 216.43 194.664L224.741 36.8C224.793 35.995 224.678 35.1878 224.403 34.4291C224.127 33.6703 223.697 32.9764 223.14 32.3907C222.582 31.805 221.909 31.3402 221.163 31.0254C220.417 30.7106 219.613 30.5526 218.803 30.5612Z" fill="#407BFF"/>
<path opacity="0.8" d="M218.803 30.5612H152.384C150.696 30.5817 149.079 31.2359 147.856 32.3928C146.632 33.5496 145.893 35.1238 145.786 36.8L137.475 194.664C137.422 195.469 137.537 196.277 137.813 197.035C138.088 197.794 138.518 198.488 139.076 199.074C139.633 199.659 140.306 200.124 141.053 200.439C141.799 200.754 142.603 200.912 143.413 200.903H209.832C211.519 200.883 213.136 200.229 214.36 199.072C215.583 197.915 216.323 196.341 216.43 194.664L224.741 36.8C224.793 35.995 224.678 35.1878 224.403 34.4291C224.127 33.6703 223.697 32.9764 223.14 32.3907C222.582 31.805 221.909 31.3402 221.163 31.0254C220.417 30.7106 219.613 30.5526 218.803 30.5612Z" fill="white"/>
<path d="M224.589 23.9625H219.164C220.443 23.9486 221.71 24.1975 222.888 24.6938C224.065 25.19 225.127 25.9228 226.007 26.8464C226.886 27.7699 227.565 28.8643 228 30.0609C228.435 31.2575 228.617 32.5307 228.535 33.8006L219.907 197.689C219.742 200.334 218.577 202.818 216.647 204.643C214.717 206.469 212.164 207.499 209.502 207.527H214.926C217.588 207.499 220.141 206.469 222.071 204.643C224.002 202.818 225.166 200.334 225.331 197.689L233.959 33.8006C234.041 32.5307 233.859 31.2575 233.424 30.0609C232.989 28.8643 232.311 27.7699 231.431 26.8464C230.551 25.9228 229.49 25.19 228.312 24.6938C227.135 24.1975 225.867 23.9486 224.589 23.9625Z" fill="#716EFA"/>
<path opacity="0.4" d="M224.589 23.9625H219.164C220.443 23.9486 221.71 24.1975 222.888 24.6938C224.065 25.19 225.127 25.9228 226.007 26.8464C226.886 27.7699 227.565 28.8643 228 30.0609C228.435 31.2575 228.617 32.5307 228.535 33.8006L219.907 197.689C219.742 200.334 218.577 202.818 216.647 204.643C214.717 206.469 212.164 207.499 209.502 207.527H214.926C217.588 207.499 220.141 206.469 222.071 204.643C224.001 202.818 225.166 200.334 225.331 197.689L233.959 33.8006C234.041 32.5307 233.859 31.2575 233.424 30.0609C232.989 28.8643 232.311 27.7699 231.431 26.8464C230.551 25.9228 229.49 25.19 228.312 24.6938C227.135 24.1975 225.867 23.9486 224.589 23.9625Z" fill="white"/>
<path opacity="0.4" d="M152.377 30.5612L161.399 200.96H184.873L175.851 30.5928H152.377V30.5612Z" fill="white"/>
<path opacity="0.4" d="M189.124 200.928H194.408L185.387 30.5612H180.102L189.124 200.928Z" fill="white"/>
<path d="M155.727 21.0894H158.056C158.131 21.0894 158.204 21.0595 158.258 21.0062C158.311 20.9529 158.341 20.8806 158.341 20.8052C158.341 20.7299 158.311 20.6576 158.258 20.6043C158.204 20.551 158.131 20.5211 158.056 20.5211H155.727C155.652 20.5211 155.579 20.551 155.526 20.6043C155.472 20.6576 155.442 20.7299 155.442 20.8052C155.442 20.8806 155.472 20.9529 155.526 21.0062C155.579 21.0595 155.652 21.0894 155.727 21.0894Z" fill="#407BFF"/>
<path d="M138.8 39.793C138.946 37.0904 138.832 34.2046 139.435 31.5841C140.78 25.4968 146.274 21.3292 152.428 21.1208C152.79 21.1208 152.796 20.5399 152.428 20.5525C149.734 20.6112 147.112 21.4291 144.866 22.9111C142.62 24.3931 140.843 26.4786 139.739 28.9256C138.242 32.3039 138.471 36.2127 138.268 39.8246C138.268 40.1908 138.82 40.1908 138.839 39.8246L138.8 39.793Z" fill="#407BFF"/>
<path d="M190.824 64.3758H175.598C174.928 64.3833 174.264 64.253 173.647 63.9932C173.03 63.7334 172.474 63.3496 172.013 62.8659C171.552 62.3822 171.196 61.809 170.968 61.1822C170.74 60.5554 170.644 59.8884 170.687 59.2231L171.487 44.0681C171.572 42.6824 172.181 41.3803 173.192 40.4241C174.204 39.4679 175.542 38.9288 176.936 38.9154H192.163C192.832 38.9079 193.496 39.0382 194.113 39.2981C194.729 39.5579 195.285 39.9418 195.746 40.4256C196.206 40.9094 196.561 41.4827 196.788 42.1095C197.016 42.7363 197.111 43.4031 197.067 44.0681L196.274 59.2231C196.186 60.6078 195.575 61.9082 194.565 62.8638C193.554 63.8194 192.218 64.3595 190.824 64.3758Z" fill="white"/>
<path d="M181.104 53.9315C180.037 52.7685 179.407 51.2736 179.322 49.7007H179.258C178.624 49.7007 178.18 49.0251 178.224 48.1979C178.268 47.3707 178.801 46.695 179.417 46.695H179.575L179.69 46.2909C183.363 46.0951 185.399 44.889 186.522 43.9039C186.756 44.3976 187.091 44.8366 187.506 45.1924C187.922 45.5483 188.408 45.8128 188.933 45.9688C188.99 46.2025 189.041 46.4487 189.079 46.695H189.238C189.872 46.695 190.323 47.3643 190.278 48.1979C190.234 49.0314 189.695 49.7007 189.079 49.7007H189.016C188.758 51.2157 188.054 52.6202 186.992 53.7357C187.86 54.0105 188.776 54.1029 189.682 54.0073C193.393 53.7926 191.433 46.1961 189.434 43.4746C188.216 41.8075 187.531 41.0308 186.84 41.3402C186.066 40.9172 181.415 39.0102 178.408 44.6238C175.287 50.4522 174.36 55.7564 181.104 53.9315Z" fill="#407BFF"/>
<path d="M191.325 58.0171L187.487 56.7983C187.487 56.7983 184.169 58.0613 183.376 61.2185C182.919 58.0613 179.734 56.7983 179.734 56.7983L175.769 58.0171C173.39 58.3454 172.235 60.3724 171.677 62.4688C172.138 63.0655 172.732 63.5472 173.413 63.876C174.093 64.2048 174.841 64.3716 175.598 64.3632H190.824C191.607 64.3595 192.381 64.1885 193.092 63.8617C193.804 63.5349 194.437 63.0599 194.948 62.4688C194.611 60.3724 193.666 58.3454 191.325 58.0171Z" fill="#407BFF"/>
<path d="M201.844 62.1468C201.866 61.8483 201.866 61.5486 201.844 61.2501L203.36 59.9493C203.225 59.3234 203.012 58.7168 202.726 58.1433L200.778 58.2444C200.44 57.7674 200.034 57.342 199.573 56.9815L199.776 55.0492C199.217 54.7281 198.62 54.4778 197.999 54.3041L196.578 55.7249C196.282 55.6845 195.983 55.6634 195.684 55.6617C195.38 55.6634 195.077 55.6845 194.776 55.7249L193.552 54.2914C192.907 54.4661 192.285 54.7162 191.699 55.0366V56.9878C191.2 57.3489 190.75 57.7735 190.361 58.2507L188.426 58.1496C188.075 58.718 187.79 59.3238 187.576 59.9556L188.952 61.2564C188.893 61.5521 188.857 61.8519 188.844 62.1531C188.822 62.4495 188.822 62.7471 188.844 63.0434L187.334 64.3442C187.473 64.9693 187.686 65.5757 187.969 66.1502L189.917 66.0492C190.258 66.5232 190.664 66.9482 191.122 67.3121L190.925 69.2444C191.482 69.5654 192.076 69.8158 192.695 69.9895L194.078 68.5561C194.375 68.5964 194.674 68.6175 194.973 68.6192C195.274 68.6175 195.575 68.5965 195.874 68.5561L197.105 69.9895C197.749 69.8126 198.37 69.5626 198.957 69.2444V67.3121C199.454 66.9476 199.904 66.5234 200.296 66.0492L202.231 66.1502C202.582 65.583 202.865 64.9769 203.075 64.3442L201.749 63.0371C201.8 62.7427 201.832 62.4453 201.844 62.1468ZM195.233 64.1738C194.969 64.1788 194.707 64.129 194.463 64.0276C194.219 63.9261 193.999 63.7753 193.817 63.5846C193.635 63.3939 193.495 63.1676 193.405 62.92C193.316 62.6725 193.28 62.4092 193.298 62.1468C193.333 61.6005 193.574 61.0876 193.973 60.7106C194.372 60.3336 194.899 60.1203 195.449 60.1135C195.711 60.1128 195.97 60.166 196.211 60.2697C196.451 60.3735 196.668 60.5256 196.847 60.7165C197.025 60.9074 197.162 61.133 197.249 61.3791C197.336 61.6252 197.371 61.8866 197.352 62.1468C197.319 62.6876 197.082 63.1962 196.69 63.5717C196.297 63.9472 195.777 64.1621 195.233 64.1738Z" fill="#407BFF"/>
<path opacity="0.4" d="M201.844 62.1468C201.866 61.8483 201.866 61.5486 201.844 61.2501L203.36 59.9493C203.225 59.3234 203.012 58.7168 202.726 58.1433L200.778 58.2444C200.44 57.7674 200.034 57.342 199.573 56.9815L199.776 55.0492C199.217 54.7281 198.62 54.4778 197.999 54.3041L196.578 55.7249C196.282 55.6845 195.983 55.6634 195.684 55.6617C195.38 55.6634 195.077 55.6845 194.776 55.7249L193.552 54.2914C192.907 54.4661 192.285 54.7162 191.699 55.0366V56.9878C191.2 57.3489 190.75 57.7735 190.361 58.2507L188.426 58.1496C188.075 58.718 187.79 59.3238 187.576 59.9556L188.952 61.2564C188.893 61.5521 188.857 61.8519 188.844 62.1531C188.822 62.4495 188.822 62.7471 188.844 63.0434L187.334 64.3442C187.473 64.9693 187.686 65.5757 187.969 66.1502L189.917 66.0492C190.258 66.5232 190.664 66.9482 191.122 67.3121L190.925 69.2444C191.482 69.5654 192.076 69.8158 192.695 69.9895L194.078 68.5561C194.375 68.5964 194.674 68.6175 194.973 68.6192C195.274 68.6175 195.575 68.5965 195.874 68.5561L197.105 69.9895C197.749 69.8126 198.37 69.5626 198.957 69.2444V67.3121C199.454 66.9476 199.904 66.5234 200.296 66.0492L202.231 66.1502C202.582 65.583 202.865 64.9769 203.075 64.3442L201.749 63.0371C201.8 62.7427 201.832 62.4453 201.844 62.1468ZM195.233 64.1738C194.969 64.1788 194.707 64.129 194.463 64.0276C194.219 63.9261 193.999 63.7753 193.817 63.5846C193.635 63.3939 193.495 63.1676 193.405 62.92C193.316 62.6725 193.28 62.4092 193.298 62.1468C193.333 61.6005 193.574 61.0876 193.973 60.7106C194.372 60.3336 194.899 60.1203 195.449 60.1135C195.711 60.1128 195.97 60.166 196.211 60.2697C196.451 60.3735 196.668 60.5256 196.847 60.7165C197.025 60.9074 197.162 61.133 197.249 61.3791C197.336 61.6252 197.371 61.8866 197.352 62.1468C197.319 62.6876 197.082 63.1962 196.69 63.5717C196.297 63.9472 195.777 64.1621 195.233 64.1738Z" fill="white"/>
<path d="M195.233 64.1737C194.969 64.1788 194.707 64.129 194.463 64.0276C194.219 63.9261 193.999 63.7753 193.817 63.5846C193.635 63.3939 193.495 63.1676 193.405 62.92C193.316 62.6725 193.28 62.4091 193.298 62.1468C193.333 61.6005 193.574 61.0875 193.973 60.7106C194.372 60.3336 194.899 60.1203 195.449 60.1135C195.711 60.1128 195.97 60.166 196.211 60.2697C196.451 60.3735 196.668 60.5256 196.847 60.7165C197.025 60.9074 197.162 61.133 197.249 61.3791C197.336 61.6252 197.371 61.8866 197.352 62.1468C197.319 62.6876 197.083 63.1962 196.69 63.5717C196.297 63.9472 195.777 64.1621 195.233 64.1737Z" fill="white"/>
<path d="M182.151 134.259H179.988L180.184 130.559H182.342L182.151 134.259Z" fill="#407BFF"/>
<path d="M191.992 134.259H189.834L190.158 128.159H192.315L191.992 134.259Z" fill="#407BFF"/>
<path d="M201.838 134.259H199.681L200.125 125.76H202.288L201.838 134.259Z" fill="#407BFF"/>
<path d="M211.684 134.259H209.521L210.098 123.367H212.255L211.684 134.259Z" fill="white"/>
<path d="M152.314 134.259H163.29C164.768 134.244 166.186 133.673 167.259 132.659C168.331 131.646 168.978 130.266 169.069 128.797C169.115 128.092 169.014 127.385 168.772 126.721C168.53 126.057 168.154 125.449 167.665 124.937C167.177 124.424 166.588 124.017 165.934 123.741C165.28 123.466 164.577 123.327 163.867 123.335H152.898C151.419 123.35 150.001 123.921 148.929 124.935C147.856 125.948 147.209 127.328 147.118 128.797C147.073 129.502 147.174 130.208 147.415 130.872C147.656 131.536 148.032 132.143 148.52 132.655C149.008 133.168 149.596 133.575 150.249 133.851C150.902 134.127 151.605 134.266 152.314 134.259Z" fill="white"/>
<path d="M152.828 124.554H163.804C165.134 124.539 166.418 125.037 167.388 125.943C168.357 126.849 168.937 128.094 169.006 129.416C169.038 129.22 169.057 129.018 169.069 128.816C169.115 128.111 169.014 127.404 168.772 126.74C168.53 126.076 168.154 125.468 167.665 124.955C167.177 124.443 166.588 124.036 165.934 123.76C165.281 123.485 164.577 123.346 163.867 123.354H152.898C151.419 123.369 150.001 123.94 148.929 124.954C147.856 125.967 147.21 127.347 147.118 128.816C147.118 129.018 147.118 129.22 147.118 129.416C147.348 128.069 148.045 126.844 149.089 125.956C150.132 125.068 151.455 124.571 152.828 124.554Z" fill="#407BFF"/>
<path opacity="0.3" d="M152.828 124.554H163.804C165.134 124.539 166.418 125.037 167.388 125.943C168.357 126.849 168.937 128.094 169.006 129.416C169.038 129.22 169.057 129.018 169.069 128.816C169.115 128.111 169.014 127.404 168.772 126.74C168.53 126.076 168.154 125.468 167.665 124.955C167.177 124.443 166.588 124.036 165.934 123.76C165.281 123.485 164.577 123.346 163.867 123.354H152.898C151.419 123.369 150.001 123.94 148.929 124.954C147.856 125.967 147.21 127.347 147.118 128.816C147.118 129.018 147.118 129.22 147.118 129.416C147.348 128.069 148.045 126.844 149.089 125.956C150.132 125.068 151.455 124.571 152.828 124.554Z" fill="white"/>
<path d="M156.331 132.597C158.559 130.436 158.694 126.977 156.633 124.871C154.571 122.766 151.094 122.811 148.865 124.972C146.637 127.134 146.502 130.593 148.563 132.698C150.625 134.804 154.102 134.758 156.331 132.597Z" fill="#407BFF"/>
<path d="M146.128 181.347H143.971L144.231 176.447H146.388L146.128 181.347Z" fill="#407BFF"/>
<path d="M154.135 180.147H151.978L152.08 178.247H154.237L154.135 180.147Z" fill="#407BFF"/>
<path d="M162.046 180.747H159.889L160.048 177.647H162.211L162.046 180.747Z" fill="#407BFF"/>
<path d="M170.021 180.147H167.857L167.959 178.247H170.122L170.021 180.147Z" fill="#407BFF"/>
<path d="M177.901 181.347H175.737L175.997 176.447H178.154L177.901 181.347Z" fill="#407BFF"/>
<path d="M185.901 180.147H183.744L183.845 178.247H186.002L185.901 180.147Z" fill="#407BFF"/>
<path d="M193.812 180.747H191.655L191.82 177.647H193.977L193.812 180.747Z" fill="#407BFF"/>
<path d="M201.787 180.147H199.63L199.725 178.247H201.888L201.787 180.147Z" fill="#407BFF"/>
<path d="M209.667 181.347H207.51L207.764 176.447H209.927L209.667 181.347Z" fill="#407BFF"/>
<g opacity="0.3">
<path d="M146.128 181.347H143.971L144.231 176.447H146.388L146.128 181.347Z" fill="black"/>
<path d="M154.135 180.147H151.978L152.079 178.247H154.236L154.135 180.147Z" fill="black"/>
<path d="M162.046 180.747H159.889L160.048 177.647H162.211L162.046 180.747Z" fill="black"/>
<path d="M170.021 180.147H167.857L167.959 178.247H170.122L170.021 180.147Z" fill="black"/>
<path d="M177.901 181.347H175.737L175.997 176.447H178.154L177.901 181.347Z" fill="black"/>
<path d="M185.901 180.147H183.744L183.845 178.247H186.002L185.901 180.147Z" fill="black"/>
<path d="M193.812 180.747H191.655L191.82 177.647H193.977L193.812 180.747Z" fill="black"/>
<path d="M201.787 180.147H199.63L199.725 178.247H201.888L201.787 180.147Z" fill="black"/>
<path d="M209.666 181.347H207.509L207.763 176.447H209.926L209.666 181.347Z" fill="black"/>
</g>
<path d="M171.804 182.155C171.836 181.612 171.931 179.737 171.962 179.2C171.994 178.663 172.089 176.782 172.115 176.245C172.14 175.863 172.086 175.481 171.956 175.121C171.826 174.761 171.622 174.432 171.359 174.154C171.095 173.876 170.776 173.655 170.423 173.505C170.069 173.355 169.688 173.28 169.304 173.283C168.504 173.293 167.736 173.603 167.156 174.153C166.576 174.702 166.226 175.449 166.176 176.245C166.145 176.782 166.05 178.657 166.018 179.2C165.986 179.743 165.891 181.612 165.866 182.155C165.841 182.536 165.896 182.918 166.026 183.277C166.157 183.636 166.36 183.965 166.624 184.242C166.888 184.519 167.206 184.74 167.559 184.889C167.912 185.038 168.292 185.114 168.676 185.11C169.476 185.101 170.242 184.791 170.822 184.243C171.402 183.695 171.753 182.95 171.804 182.155Z" fill="#407BFF"/>
<path d="M150.925 160.591H161.907C163.385 160.576 164.802 160.004 165.874 158.991C166.945 157.977 167.59 156.597 167.68 155.129C167.727 154.424 167.626 153.718 167.385 153.053C167.144 152.389 166.768 151.781 166.28 151.269C165.793 150.756 165.204 150.349 164.55 150.073C163.897 149.798 163.194 149.659 162.484 149.667H151.502C150.024 149.682 148.605 150.253 147.533 151.267C146.461 152.28 145.814 153.66 145.722 155.129C145.677 155.834 145.778 156.541 146.02 157.205C146.262 157.869 146.638 158.477 147.127 158.989C147.615 159.502 148.204 159.909 148.858 160.185C149.511 160.46 150.215 160.599 150.925 160.591Z" fill="white"/>
<path d="M151.438 150.867H162.414C163.744 150.852 165.027 151.35 165.996 152.256C166.964 153.163 167.543 154.407 167.61 155.729C167.644 155.53 167.665 155.33 167.673 155.129C167.72 154.424 167.619 153.718 167.379 153.053C167.138 152.389 166.762 151.781 166.274 151.269C165.786 150.756 165.197 150.349 164.544 150.073C163.89 149.798 163.187 149.659 162.478 149.667H151.502C150.023 149.682 148.605 150.253 147.533 151.267C146.46 152.28 145.814 153.66 145.722 155.129C145.722 155.331 145.722 155.533 145.722 155.729C145.95 154.379 146.648 153.153 147.693 152.264C148.738 151.375 150.064 150.88 151.438 150.867Z" fill="#407BFF"/>
<path opacity="0.3" d="M151.438 150.867H162.414C163.744 150.852 165.027 151.35 165.996 152.256C166.964 153.163 167.543 154.407 167.61 155.729C167.644 155.53 167.665 155.33 167.673 155.129C167.72 154.424 167.619 153.718 167.379 153.053C167.138 152.389 166.762 151.781 166.274 151.269C165.786 150.756 165.197 150.349 164.544 150.073C163.89 149.798 163.187 149.659 162.478 149.667H151.502C150.023 149.682 148.605 150.253 147.533 151.267C146.46 152.28 145.814 153.66 145.722 155.129C145.722 155.331 145.722 155.533 145.722 155.729C145.95 154.379 146.648 153.153 147.693 152.264C148.738 151.375 150.064 150.88 151.438 150.867Z" fill="white"/>
<path d="M156.704 155.129C156.796 153.66 157.443 152.28 158.515 151.267C159.587 150.253 161.005 149.682 162.484 149.667C163.194 149.659 163.897 149.798 164.55 150.073C165.204 150.349 165.793 150.756 166.28 151.269C166.768 151.781 167.144 152.389 167.385 153.053C167.626 153.718 167.726 154.424 167.68 155.129C167.59 156.597 166.945 157.977 165.873 158.991C164.802 160.004 163.385 160.576 161.907 160.591C161.197 160.599 160.493 160.46 159.84 160.185C159.186 159.909 158.597 159.502 158.109 158.989C157.62 158.477 157.243 157.869 157.002 157.205C156.76 156.541 156.659 155.834 156.704 155.129Z" fill="#407BFF"/>
<path d="M152.003 84.1404H211.9C212.685 84.1324 213.438 83.8291 214.007 83.2915C214.577 82.7539 214.921 82.0217 214.971 81.242C214.994 80.8681 214.94 80.4934 214.812 80.1412C214.683 79.789 214.483 79.4669 214.225 79.1949C213.966 78.923 213.653 78.7071 213.307 78.5606C212.96 78.4141 212.587 78.3403 212.211 78.3436H152.308C151.524 78.3517 150.771 78.6552 150.203 79.1929C149.634 79.7307 149.292 80.4628 149.244 81.242C149.218 81.6163 149.271 81.9919 149.399 82.3449C149.526 82.6979 149.726 83.0208 149.985 83.2931C150.245 83.5655 150.558 83.7814 150.905 83.9272C151.252 84.073 151.626 84.1456 152.003 84.1404Z" fill="white"/>
<path d="M152.308 79.6255H212.179C212.805 79.6201 213.413 79.8293 213.902 80.218C214.391 80.6068 214.73 81.1513 214.863 81.7598C214.898 81.5952 214.923 81.4286 214.939 81.261C214.962 80.8871 214.908 80.5123 214.78 80.1601C214.651 79.808 214.452 79.4859 214.193 79.2139C213.934 78.942 213.621 78.7261 213.275 78.5796C212.928 78.4331 212.555 78.3593 212.179 78.3626H152.308C151.523 78.3707 150.771 78.6742 150.203 79.2119C149.634 79.7497 149.291 80.4818 149.243 81.261C149.23 81.5201 149.255 81.7799 149.319 82.0314C149.473 81.3544 149.852 80.7489 150.394 80.3124C150.936 79.8759 151.61 79.6339 152.308 79.6255Z" fill="#407BFF"/>
<path opacity="0.3" d="M152.308 79.6255H212.179C212.805 79.6201 213.413 79.8293 213.902 80.218C214.391 80.6068 214.73 81.1513 214.863 81.7598C214.898 81.5952 214.923 81.4286 214.939 81.261C214.962 80.8871 214.908 80.5123 214.78 80.1601C214.651 79.808 214.452 79.4859 214.193 79.2139C213.934 78.942 213.621 78.7261 213.275 78.5796C212.928 78.4331 212.555 78.3593 212.179 78.3626H152.308C151.523 78.3707 150.771 78.6742 150.203 79.2119C149.634 79.7497 149.291 80.4818 149.243 81.261C149.23 81.5201 149.255 81.7799 149.319 82.0314C149.473 81.3544 149.852 80.7489 150.394 80.3124C150.936 79.8759 151.61 79.6339 152.308 79.6255Z" fill="white"/>
<path d="M166.682 85.062C168.911 82.901 169.047 79.4421 166.986 77.3362C164.924 75.2303 161.447 75.275 159.218 77.4359C156.989 79.5969 156.853 83.0558 158.915 85.1617C160.976 87.2676 164.453 87.2229 166.682 85.062Z" fill="#407BFF"/>
<path d="M210.853 151.77C210.871 151.498 210.832 151.226 210.738 150.97C210.645 150.714 210.5 150.48 210.312 150.283C210.124 150.085 209.897 149.929 209.645 149.823C209.393 149.717 209.122 149.664 208.848 149.667H191.173C190.604 149.674 190.059 149.894 189.646 150.284C189.233 150.674 188.983 151.204 188.946 151.77L188.591 158.488C188.573 158.76 188.613 159.032 188.706 159.288C188.799 159.544 188.944 159.778 189.132 159.975C189.32 160.173 189.548 160.329 189.799 160.435C190.051 160.541 190.322 160.594 190.596 160.591H208.271C208.84 160.584 209.386 160.364 209.799 159.974C210.211 159.584 210.461 159.053 210.498 158.488L210.853 151.77Z" fill="#407BFF"/>
<path d="M191.11 150.867H208.785C209.058 150.863 209.329 150.916 209.581 151.022C209.833 151.128 210.06 151.285 210.248 151.482C210.437 151.68 210.582 151.914 210.675 152.17C210.768 152.425 210.807 152.698 210.79 152.969L210.853 151.77C210.871 151.498 210.832 151.226 210.738 150.97C210.645 150.714 210.5 150.48 210.312 150.283C210.124 150.085 209.897 149.929 209.645 149.823C209.393 149.717 209.122 149.664 208.848 149.667H191.173C190.604 149.674 190.059 149.894 189.646 150.284C189.233 150.674 188.983 151.204 188.946 151.77L188.883 152.969C188.92 152.404 189.169 151.873 189.582 151.484C189.995 151.094 190.541 150.873 191.11 150.867Z" fill="#407BFF"/>
<path opacity="0.3" d="M191.11 150.867H208.785C209.058 150.863 209.329 150.916 209.581 151.022C209.833 151.128 210.06 151.285 210.248 151.482C210.437 151.68 210.582 151.914 210.675 152.17C210.768 152.425 210.807 152.698 210.79 152.969L210.853 151.77C210.871 151.498 210.832 151.226 210.738 150.97C210.645 150.714 210.5 150.48 210.312 150.283C210.124 150.085 209.897 149.929 209.645 149.823C209.393 149.717 209.122 149.664 208.848 149.667H191.173C190.604 149.674 190.059 149.894 189.646 150.284C189.233 150.674 188.983 151.204 188.946 151.77L188.883 152.969C188.92 152.404 189.169 151.873 189.582 151.484C189.995 151.094 190.541 150.873 191.11 150.867Z" fill="black"/>
<path d="M199.928 151.77C199.946 151.498 199.907 151.226 199.814 150.97C199.72 150.714 199.575 150.48 199.387 150.283C199.199 150.085 198.972 149.929 198.72 149.823C198.468 149.717 198.197 149.664 197.923 149.667H191.173C190.604 149.674 190.059 149.894 189.646 150.284C189.233 150.674 188.983 151.204 188.946 151.77L188.591 158.488C188.573 158.76 188.613 159.032 188.706 159.288C188.799 159.544 188.944 159.778 189.132 159.975C189.32 160.173 189.548 160.329 189.799 160.435C190.051 160.541 190.322 160.594 190.596 160.591H197.346C197.915 160.584 198.461 160.364 198.874 159.974C199.286 159.584 199.536 159.053 199.573 158.488L199.928 151.77Z" fill="white"/>
<path d="M195.24 156.979H193.083L193.279 153.279H195.436L195.24 156.979Z" fill="#407BFF"/>
<path d="M210.923 102.131H151.058C150.273 102.14 149.521 102.444 148.952 102.981C148.383 103.519 148.038 104.25 147.987 105.029C147.963 105.403 148.016 105.778 148.144 106.131C148.272 106.484 148.472 106.806 148.731 107.078C148.99 107.35 149.303 107.566 149.65 107.712C149.997 107.858 150.37 107.932 150.747 107.927H210.631C211.416 107.921 212.169 107.618 212.737 107.08C213.306 106.542 213.649 105.809 213.695 105.029C213.72 104.654 213.666 104.278 213.537 103.924C213.409 103.571 213.208 103.248 212.947 102.975C212.687 102.703 212.372 102.487 212.024 102.342C211.675 102.197 211.301 102.125 210.923 102.131Z" fill="#407BFF"/>
<path opacity="0.3" d="M151.058 103.394H210.923C211.548 103.387 212.156 103.595 212.645 103.982C213.134 104.37 213.474 104.914 213.607 105.522C213.648 105.36 213.674 105.195 213.683 105.029C213.707 104.655 213.654 104.28 213.526 103.927C213.398 103.575 213.198 103.252 212.939 102.98C212.68 102.708 212.367 102.492 212.02 102.346C211.673 102.2 211.3 102.126 210.923 102.131H151.058C150.6 102.121 150.146 102.215 149.73 102.407C149.314 102.598 148.948 102.882 148.659 103.236C148.37 103.59 148.166 104.005 148.063 104.449C147.96 104.893 147.96 105.355 148.064 105.799C148.22 105.123 148.6 104.517 149.143 104.081C149.686 103.645 150.36 103.403 151.058 103.394Z" fill="black"/>
<path d="M201.635 110.491H197.048C196.637 110.495 196.229 110.415 195.85 110.256C195.471 110.097 195.128 109.862 194.844 109.566C194.56 109.271 194.34 108.92 194.197 108.536C194.055 108.152 193.993 107.743 194.015 107.334L194.256 102.768C194.315 101.917 194.695 101.118 195.32 100.533C195.944 99.9479 196.767 99.6186 197.625 99.6111H202.212C202.623 99.607 203.031 99.687 203.409 99.8461C203.788 100.005 204.13 100.24 204.414 100.536C204.697 100.832 204.917 101.183 205.059 101.567C205.201 101.951 205.262 102.36 205.238 102.768L204.997 107.334C204.938 108.184 204.56 108.982 203.936 109.567C203.313 110.152 202.491 110.482 201.635 110.491Z" fill="white"/>
<path d="M200.848 106.879H198.691L198.888 103.179H201.045L200.848 106.879Z" fill="#407BFF"/>
<path d="M106.464 85.7569L98.337 94.9131C98.9715 99.2828 100.297 111.962 100.297 111.962C99.0793 113.566 96.1038 113.112 96.1038 113.112C93.6741 107.089 92.6796 100.587 93.1981 94.1174C93.7691 88.2007 101.395 76.5629 106.826 73.2793C107.712 72.7456 108.671 72.3435 109.674 72.0859L110.747 71.9596L106.94 86.0348L106.464 85.7569Z" fill="#407BFF"/>
<path opacity="0.6" d="M106.464 85.7569L98.337 94.9131C98.9715 99.2828 100.297 111.962 100.297 111.962C99.0793 113.566 96.1038 113.112 96.1038 113.112C93.6741 107.089 92.6796 100.587 93.1981 94.1174C93.7691 88.2007 101.395 76.5629 106.826 73.2793C107.712 72.7456 108.671 72.3435 109.674 72.0859L110.747 71.9596L106.94 86.0348L106.464 85.7569Z" fill="black"/>
<path d="M99.8535 112.96L101.82 115.05C101.884 115.12 101.934 115.201 101.966 115.29L103.121 118.523C103.191 118.693 103.191 118.884 103.121 119.054L102.563 120.197C102.517 120.292 102.449 120.375 102.365 120.439C102.282 120.504 102.184 120.548 102.08 120.569L98.0644 121.396C97.9743 121.415 97.8815 121.415 97.7914 121.397C97.7012 121.379 97.6155 121.344 97.5393 121.293C97.4631 121.242 97.398 121.176 97.3476 121.099C97.2972 121.023 97.2627 120.937 97.246 120.847L96.472 116.591C96.454 116.506 96.454 116.417 96.472 116.332L97.0049 113.604C97.0322 113.468 97.1001 113.344 97.1997 113.247C97.2993 113.15 97.426 113.085 97.5632 113.061L99.2318 112.764C99.3436 112.744 99.4588 112.751 99.5673 112.785C99.6757 112.819 99.774 112.879 99.8535 112.96Z" fill="#FAB27B"/>
<path d="M101.547 112.48L95.2919 115.303L95.2095 112.291L100.983 110.081L101.547 112.48Z" fill="#407BFF"/>
<path opacity="0.5" d="M101.547 112.48L95.2919 115.303L95.2095 112.291L100.983 110.081L101.547 112.48Z" fill="white"/>
<path d="M99.1238 123.619C95.3934 136.88 96.9731 156.455 94.9239 169.583C93.5154 178.625 83.8848 208.386 83.8848 208.386L92.3861 210.95C92.3861 210.95 102.994 184.738 105.075 176.927C108.412 164.253 113.424 140.208 113.424 140.208C113.424 140.208 115.295 133.388 114.445 132.63C113.595 131.872 99.1238 123.619 99.1238 123.619Z" fill="#469E99"/>
<path opacity="0.3" d="M108.488 132.725L114.635 134.707L112.332 145.442C112.332 145.442 113.462 135.175 108.488 132.725Z" fill="black"/>
<path d="M85.5915 208.001L84.0688 212.806L88.1927 214.65L90.2355 209.548L85.5915 208.001Z" fill="#FAB27B"/>
<path opacity="0.2" d="M84.6904 210.849L89.0426 212.522L89.62 211.076L85.0457 209.731L84.6904 210.849Z" fill="black"/>
<path d="M83.9733 205.753L94.3717 208.582L92.4874 211.916L83.3896 209.245L83.9733 205.753Z" fill="#407BFF"/>
<path opacity="0.5" d="M83.9733 205.753L94.3717 208.582L92.4874 211.916L83.3896 209.245L83.9733 205.753Z" fill="white"/>
<path d="M89.0741 215.307C89.0533 215.292 89.037 215.272 89.0269 215.248C89.0168 215.225 89.0134 215.199 89.017 215.174C89.022 215.15 89.0345 215.128 89.0526 215.111C89.0708 215.094 89.0938 215.083 89.1185 215.079C89.2137 215.079 91.2819 214.764 92.0052 215.3C92.0736 215.348 92.1318 215.409 92.1764 215.48C92.2211 215.55 92.2513 215.629 92.2653 215.711C92.2895 215.803 92.2841 215.901 92.25 215.99C92.2159 216.08 92.1548 216.156 92.075 216.21C91.5468 216.338 90.9899 216.271 90.5079 216.02C90.01 215.825 89.5302 215.586 89.0741 215.307ZM89.5055 215.307C90.3684 215.774 91.5928 216.241 91.9417 216.014C91.9925 216.014 92.0496 215.932 92.0179 215.755C92.0122 215.704 91.9942 215.655 91.9655 215.612C91.9368 215.569 91.8982 215.534 91.8529 215.509C91.7919 215.46 91.7233 215.422 91.6499 215.395C90.9481 215.226 90.2203 215.192 89.5055 215.294V215.307Z" fill="#407BFF"/>
<path d="M89.0175 215.275C89.0064 215.256 89.0005 215.234 89.0005 215.212C89.0005 215.19 89.0064 215.168 89.0175 215.149C89.0492 215.092 89.69 213.842 90.5084 213.577C90.6251 213.536 90.7488 213.52 90.8721 213.529C90.9953 213.537 91.1154 213.571 91.2253 213.627C91.5298 213.785 91.5679 213.981 91.5235 214.12C91.4156 214.701 89.8359 215.294 89.1571 215.326C89.1407 215.332 89.1226 215.332 89.1063 215.326C89.0885 215.325 89.071 215.32 89.0555 215.312C89.04 215.303 89.0269 215.29 89.0175 215.275ZM91.0477 213.817C90.9026 213.762 90.7423 213.762 90.5972 213.817C90.0662 214.101 89.6363 214.542 89.3664 215.079C90.1087 214.959 91.1999 214.448 91.2697 214.101C91.2697 214.069 91.2697 213.981 91.0921 213.88H91.0223L91.0477 213.817Z" fill="#407BFF"/>
<path d="M88.8206 214.435L83.5231 212.37C83.4261 212.331 83.3183 212.325 83.2178 212.355C83.1173 212.385 83.0302 212.448 82.9711 212.535L80.3256 216.456C80.2126 216.622 80.1699 216.826 80.2067 217.023C80.2435 217.221 80.3569 217.396 80.5222 217.51L80.6681 217.586C82.5714 218.293 84.3288 218.849 86.7079 219.784C89.5121 220.882 88.6683 220.939 91.9483 222.272C93.9278 223.074 95.1776 220.965 94.3782 220.529C90.7112 218.54 90.7683 217.22 89.8166 215.269C89.6005 214.877 89.2453 214.58 88.8206 214.435Z" fill="#263238"/>
<path d="M123.384 211.916L123.479 216.544L127.978 216.974L128.25 211.916H123.384Z" fill="#FAB27B"/>
<path opacity="0.2" d="M128.136 214.063L128.2 212.85L123.41 213.046L123.441 214.461L128.136 214.063Z" fill="black"/>
<path d="M99.1238 123.619C100.532 116.938 106.153 110.99 106.153 110.99L127.724 112.367C127.724 112.367 129.082 126.158 129.399 130.767C130.033 140.075 132.66 154.529 132.73 163.862C132.825 176.491 129.919 210.003 129.919 210.003L121.773 210.962C121.773 210.962 121.893 179.964 120.561 168.276C119.552 159.435 113.475 135.15 113.475 135.15C113.475 135.15 96.77 134.821 99.1238 123.619Z" fill="#469E99"/>
<path d="M120.365 209.655L131.125 208.998L130.42 212.756L120.942 213.147L120.365 209.655Z" fill="#407BFF"/>
<path opacity="0.5" d="M120.365 209.655L131.125 208.998L130.42 212.756L120.942 213.147L120.365 209.655Z" fill="white"/>
<path d="M128.955 217.296C128.93 217.29 128.907 217.276 128.89 217.257C128.873 217.238 128.863 217.214 128.86 217.188C128.855 217.164 128.858 217.139 128.87 217.117C128.881 217.095 128.9 217.078 128.923 217.068C129.005 217.024 130.864 216.058 131.721 216.336C131.882 216.381 132.019 216.488 132.101 216.633C132.156 216.712 132.185 216.805 132.185 216.901C132.185 216.997 132.156 217.091 132.101 217.17C131.645 217.467 131.093 217.586 130.553 217.504C130.016 217.48 129.481 217.41 128.955 217.296ZM129.361 217.144C130.325 217.302 131.638 217.346 131.898 217.018C131.937 216.98 131.968 216.904 131.898 216.753C131.877 216.706 131.844 216.665 131.803 216.633C131.762 216.601 131.715 216.58 131.664 216.57C131.588 216.545 131.509 216.532 131.429 216.532C130.706 216.602 130.004 216.81 129.361 217.144Z" fill="#407BFF"/>
<path d="M128.885 217.283C128.868 217.269 128.855 217.252 128.847 217.232C128.838 217.212 128.834 217.191 128.834 217.17C128.834 217.106 129.043 215.717 129.729 215.199C129.825 215.123 129.936 215.068 130.055 215.037C130.174 215.005 130.298 214.998 130.42 215.016C130.756 215.06 130.858 215.237 130.864 215.376C130.953 215.963 129.659 217.043 129.024 217.271C129.017 217.275 129.008 217.277 128.999 217.277C128.99 217.277 128.981 217.275 128.974 217.271C128.96 217.279 128.946 217.284 128.93 217.286C128.915 217.288 128.9 217.287 128.885 217.283ZM130.331 215.244C130.174 215.238 130.019 215.287 129.894 215.382C129.489 215.814 129.226 216.358 129.139 216.942C129.773 216.589 130.661 215.742 130.642 215.389C130.642 215.357 130.642 215.269 130.401 215.244H130.331Z" fill="#407BFF"/>
<path d="M128.447 216.551L122.737 216.323C122.633 216.32 122.53 216.352 122.446 216.414C122.362 216.475 122.301 216.564 122.274 216.664L121.063 221.23C121.037 221.326 121.03 221.426 121.043 221.525C121.056 221.624 121.089 221.719 121.139 221.805C121.189 221.891 121.256 221.967 121.335 222.027C121.414 222.088 121.505 222.132 121.602 222.158C121.654 222.165 121.708 222.165 121.76 222.158C123.81 222.202 125.637 222.158 128.194 222.265C131.201 222.385 130.427 222.714 133.967 222.897C136.099 223.011 136.581 220.611 135.686 220.459C131.562 219.777 131.182 218.515 129.646 216.98C129.311 216.7 128.886 216.548 128.447 216.551Z" fill="#263238"/>
<path d="M121.703 66.6364C121.329 67.8298 120.39 69.8442 121.703 71.6438L115.226 71.0124C115.226 71.0124 115.917 66.2575 116.317 64.6978C116.577 63.6938 116.913 62.6013 120.32 63.5485C122.274 64.1105 121.957 65.8281 121.703 66.6364Z" fill="#FAB27B"/>
<path d="M115.86 64.8746C112.295 62.1341 104.758 54.7082 111.99 48.2231C118.011 42.8241 123.543 45.9814 125.427 49.6313C127.54 53.7168 132.33 64.6347 121.703 66.6364C119.749 67.0026 117.713 66.2954 115.86 64.8746Z" fill="#FAB27B"/>
<path d="M110.766 71.2271C110.766 71.2271 115.765 66.8574 125.262 72.6226L125.129 73.9739L110.854 72.5974L110.766 71.2271Z" fill="#407BFF"/>
<path opacity="0.5" d="M110.766 71.2271C110.766 71.2271 115.765 66.8574 125.262 72.6226L125.129 73.9739L110.854 72.5974L110.766 71.2271Z" fill="white"/>
<path opacity="0.1" d="M120.339 65.3482C120.339 66.8069 120.79 67.5646 121.316 67.9435C121.414 67.4992 121.544 67.0624 121.703 66.6364C120.428 66.0807 120.339 65.3482 120.339 65.3482Z" fill="black"/>
<path d="M124.146 72.4521C122.09 72.0153 120.012 71.6864 117.922 71.4671C114.242 71.0377 111.432 70.7535 109.401 71.6439C106.166 73.0647 105.753 73.9739 105.753 73.9739L106.388 84.4119C106.892 89.4478 106.984 94.5163 106.661 99.5669C106.661 99.6111 106.407 109.512 101.033 114.829C103.267 116.633 105.912 117.862 108.735 118.41L111.768 111.186L112.726 118.763C112.726 118.763 123.644 121.984 132.653 119.009C132.653 119.009 127.724 111.167 129.31 103.147C130.077 99.2891 130.636 97.4642 131.067 94.4332C131.316 92.7986 131.316 91.1361 131.067 89.5015L129.043 75.7357C129.043 75.7357 125.465 72.7742 124.146 72.4521Z" fill="#407BFF"/>
<path opacity="0.6" d="M124.146 72.4521C122.09 72.0153 120.012 71.6864 117.922 71.4671C114.242 71.0377 111.432 70.7535 109.401 71.6439C106.166 73.0647 105.753 73.9739 105.753 73.9739L106.388 84.4119C106.892 89.4478 106.984 94.5163 106.661 99.5669C106.661 99.6111 106.407 109.512 101.033 114.829C103.267 116.633 105.912 117.862 108.735 118.41L111.768 111.186L112.726 118.763C112.726 118.763 123.644 121.984 132.653 119.009C132.653 119.009 127.724 111.167 129.31 103.147C130.077 99.2891 130.636 97.4642 131.067 94.4332C131.316 92.7986 131.316 91.1361 131.067 89.5015L129.043 75.7357C129.043 75.7357 125.465 72.7742 124.146 72.4521Z" fill="black"/>
<path d="M130.42 98.3419C130.68 96.9464 130.909 95.6329 131.055 94.4647C131.303 92.8302 131.303 91.1676 131.055 89.533L128.155 86.2874C128.155 86.2874 130.947 90.1898 130.42 98.3419Z" fill="black"/>
<path d="M156.311 83.5089L158.316 77.8258C158.355 77.7114 158.437 77.6163 158.544 77.5606L161.685 75.963C161.77 75.9228 161.865 75.908 161.958 75.9203C162.052 75.9326 162.14 75.9716 162.211 76.0325L164.451 77.99C164.539 78.068 164.595 78.1763 164.607 78.2934C164.619 78.4104 164.586 78.5276 164.514 78.6215L162.199 81.6525C162.173 81.6873 162.151 81.7256 162.135 81.7661C161.958 82.2145 160.765 85.0497 158.227 85.7569L158.132 85.7948L157.282 86.2432C157.179 86.3059 157.055 86.3264 156.937 86.3005C156.818 86.2746 156.715 86.2043 156.647 86.1042L155.563 84.595C155.522 84.5387 155.494 84.4739 155.481 84.4054C155.469 84.337 155.472 84.2666 155.49 84.1994C155.508 84.1323 155.541 84.07 155.587 84.0172C155.632 83.9644 155.689 83.9223 155.753 83.8941L156.038 83.7615C156.1 83.742 156.156 83.7092 156.203 83.6656C156.25 83.6219 156.287 83.5684 156.311 83.5089Z" fill="#FAB27B"/>
<path d="M124.088 72.4458C127.888 73.379 131.221 75.6487 133.472 78.8362C136.296 82.3846 139.485 85.629 142.988 88.5164C142.988 88.5164 150.322 86.963 154.947 82.9785L157.662 87.0135C157.662 87.0135 146.522 95.374 141.986 94.9383C138.116 94.5658 131.061 89.552 131.061 89.552L128.155 86.3063L124.088 72.4458Z" fill="#407BFF"/>
<path opacity="0.6" d="M124.088 72.4458C127.888 73.379 131.221 75.6487 133.472 78.8362C136.296 82.3846 139.485 85.629 142.988 88.5164C142.988 88.5164 150.322 86.963 154.947 82.9785L157.662 87.0135C157.662 87.0135 146.522 95.374 141.986 94.9383C138.116 94.5658 131.061 89.552 131.061 89.552L128.155 86.3063L124.088 72.4458Z" fill="black"/>
<path d="M155.201 82.4733L159.274 87.506L156.546 88.2259L153.298 83.4963L155.201 82.4733Z" fill="#407BFF"/>
<path opacity="0.5" d="M155.201 82.4733L159.274 87.506L156.546 88.2259L153.298 83.4963L155.201 82.4733Z" fill="white"/>
<path d="M128.073 58.358V60.3155L129.399 60.1324L128.073 58.358Z" fill="#E07F50"/>
<path d="M117.675 70.0778C114.623 70.3872 105.62 70.5641 106.693 63.9906C107.765 57.4171 106.306 54.1588 109.103 49.5302C111.901 44.9016 117.732 43.5503 122.979 44.9206C127.35 46.0572 127.705 49.1008 126.519 50.932C125.332 52.7633 124.799 53.1043 125.009 54.4051C125.218 55.7059 124.425 56.432 124.082 57.0445C123.705 57.486 123.226 57.8304 122.687 58.0486C122.451 59.3262 122.531 60.6418 122.921 61.8815C123.556 64.2874 124.85 69.339 117.675 70.0778Z" fill="black"/>
<path d="M121.735 44.99C123.201 45.1413 124.63 45.5496 125.954 46.1961C126.988 46.7265 128.022 47.5158 128.257 48.7219C128.593 50.4584 127.242 52.1065 126.169 53.3063C125.998 53.5021 126.328 53.7294 126.493 53.5399C128.396 51.4182 129.868 48.4378 127.077 46.4045C125.49 45.3672 123.665 44.7459 121.773 44.5985C121.721 44.5935 121.669 44.6093 121.628 44.6425C121.588 44.6756 121.562 44.7234 121.557 44.7753C121.552 44.8272 121.568 44.879 121.601 44.9193C121.635 44.9596 121.683 44.985 121.735 44.99Z" fill="black"/>
<path d="M109.122 49.4923C107.111 52.0876 107.016 55.4785 106.585 58.5727C106.299 60.7575 103.825 65.0199 105.576 67.0784C105.741 67.2742 106.058 67.0279 105.893 66.8321C104.694 65.424 105.893 63.3528 106.299 61.8941C106.683 60.4601 106.944 58.9961 107.079 57.5181C107.352 54.8723 107.714 51.9171 109.42 49.7323C109.579 49.5302 109.255 49.2903 109.097 49.4923H109.122Z" fill="black"/>
<path d="M126.709 54.6324C126.671 54.7145 126.74 54.5692 126.753 54.5503C126.792 54.4746 126.841 54.4045 126.899 54.3419C126.986 54.2371 127.103 54.1607 127.234 54.1225C127.365 54.0842 127.505 54.0859 127.635 54.1272C127.876 54.184 127.978 53.8178 127.737 53.761C127.449 53.6906 127.146 53.7308 126.887 53.8737C126.628 54.0165 126.433 54.2514 126.341 54.5313C126.246 54.7523 126.614 54.8534 126.709 54.6324Z" fill="black"/>
<path d="M125.148 57.5118C125.554 58.7242 125.148 59.9492 124.279 60.246C123.41 60.5428 122.376 59.7977 121.931 58.579C121.487 57.3603 121.931 56.1415 122.801 55.8448C123.67 55.548 124.736 56.2931 125.148 57.5118Z" fill="#FAB27B"/>
<path d="M128.155 54.4619C128.098 54.9166 127.654 55.0113 127.426 55.0492C127.197 55.0871 127.178 55.3459 127.223 55.6806C127.267 56.0153 127.426 56.2553 127.578 56.23C127.73 56.2047 127.826 55.9332 127.787 55.5985C127.771 55.5077 127.746 55.4189 127.711 55.3333C128.428 54.9039 128.155 54.4619 128.155 54.4619Z" fill="black"/>
</svg>
